<svg xmlns="http://www.w3.org/2000/svg" width="41.668" height="31.054" viewBox="0 0 41.668 31.054">
  <g id="Groupe_582" data-name="Groupe 582" transform="translate(3937.994 3971.5)">
    <path id="Tracé_1375" data-name="Tracé 1375" d="M340.268,49.322v3.34l-.071.112c-.106.17-.235.37-.389.571a4.319,4.319,0,0,1-2.85,1.937h-.466V51.95l.058-.107c.118-.188.243-.383.39-.583a4.342,4.342,0,0,1,2.868-1.938h.46" transform="translate(-4236.595 -4020.822)" fill="#ea4205"/>
    <path id="Tracé_1376" data-name="Tracé 1376" d="M183.024,110.706v18.255h-.453a4.028,4.028,0,0,1-2.669-1.684,8.1,8.1,0,0,1-4.971,1.709,8.19,8.19,0,0,1-6.208-2.893,8.1,8.1,0,0,1-14.3-5.207v-10.18H158.2v10.18a4.318,4.318,0,0,0,8.635.112l.006-.118V110.706h3.77l.005,10.3a4.317,4.317,0,0,0,8.63.029c.005-.07.005-.105.005-.146V110.706h3.777" transform="translate(-4092.415 -4069.431)" fill="#fff"/>
  </g>
</svg>
